<svg width="16" height="16" viewBox="0 0 16 16" fill="none" xmlns="http://www.w3.org/2000/svg">
<path d="M11.7862 2.75531V1.37496C11.7862 1.25531 11.6487 1.18924 11.5558 1.26246L3.5058 7.54996C3.43741 7.60315 3.38206 7.67126 3.34399 7.74909C3.30592 7.82692 3.28613 7.91242 3.28613 7.99906C3.28613 8.08571 3.30592 8.17121 3.34399 8.24904C3.38206 8.32687 3.43741 8.39498 3.5058 8.44817L11.5558 14.7357C11.6504 14.8089 11.7862 14.7428 11.7862 14.6232V13.2428C11.7862 13.1553 11.7451 13.0714 11.6772 13.0178L5.24866 7.99996L11.6772 2.98031C11.7451 2.92674 11.7862 2.84281 11.7862 2.75531Z" fill="#3A4045"/>
</svg>
