<svg width="14" height="14" viewBox="0 0 14 14" fill="none" xmlns="http://www.w3.org/2000/svg">
<g clip-path="url(#clip0_10602_807)">
<path d="M10.1113 0.777771H3.88911C3.68283 0.777771 3.485 0.859715 3.33913 1.00558C3.19327 1.15144 3.11133 1.34927 3.11133 1.55555V12.4172C3.11121 12.5714 3.15689 12.7221 3.24259 12.8502C3.32829 12.9784 3.45013 13.0781 3.59265 13.1369C3.73517 13.1957 3.89193 13.2107 4.04304 13.1802C4.19414 13.1497 4.33277 13.075 4.44133 12.9655L6.98466 10.43L9.56299 12.9967C9.67199 13.105 9.81064 13.1786 9.96144 13.2083C10.1122 13.2379 10.2684 13.2221 10.4103 13.1631C10.5522 13.104 10.6734 13.0042 10.7586 12.8763C10.8438 12.7484 10.8892 12.5981 10.8891 12.4444V1.55555C10.8891 1.34927 10.8072 1.15144 10.6613 1.00558C10.5154 0.859715 10.3176 0.777771 10.1113 0.777771Z" fill="#414B5A"/>
</g>
<defs>
<clipPath id="clip0_10602_807">
<rect width="14" height="14" fill="white"/>
</clipPath>
</defs>
</svg>
