<svg width="14" height="14" viewBox="0 0 14 14" fill="none" xmlns="http://www.w3.org/2000/svg">
<g clip-path="url(#clip0_10602_847)">
<path d="M10.1111 0.777771H3.88886C3.68258 0.777771 3.48475 0.859715 3.33889 1.00558C3.19303 1.15144 3.11108 1.34927 3.11108 1.55555V12.4172C3.11096 12.5714 3.15665 12.7221 3.24235 12.8502C3.32805 12.9784 3.44989 13.0781 3.59241 13.1369C3.73492 13.1957 3.89169 13.2107 4.04279 13.1802C4.1939 13.1497 4.33253 13.075 4.44108 12.9655L6.98442 10.43L9.56275 12.9967C9.67175 13.105 9.8104 13.1786 9.9612 13.2083C10.112 13.2379 10.2682 13.2221 10.4101 13.1631C10.552 13.104 10.6731 13.0042 10.7584 12.8763C10.8436 12.7484 10.889 12.5981 10.8889 12.4444V1.55555C10.8889 1.34927 10.8069 1.15144 10.6611 1.00558C10.5152 0.859715 10.3174 0.777771 10.1111 0.777771Z" fill="#8DBBFF"/>
</g>
<defs>
<clipPath id="clip0_10602_847">
<rect width="14" height="14" fill="white"/>
</clipPath>
</defs>
</svg>
