<svg width="20" height="20" viewBox="0 0 20 20" fill="none" xmlns="http://www.w3.org/2000/svg">
<path d="M18.2141 3.02273H14.4641V1.62926C14.4641 1.53346 14.3838 1.45508 14.2856 1.45508H13.0356C12.9374 1.45508 12.857 1.53346 12.857 1.62926V3.02273H7.14272V1.62926C7.14272 1.53346 7.06236 1.45508 6.96415 1.45508H5.71415C5.61593 1.45508 5.53557 1.53346 5.53557 1.62926V3.02273H1.78557C1.39049 3.02273 1.07129 3.33408 1.07129 3.71946V18.1767C1.07129 18.562 1.39049 18.8734 1.78557 18.8734H18.2141C18.6092 18.8734 18.9284 18.562 18.9284 18.1767V3.71946C18.9284 3.33408 18.6092 3.02273 18.2141 3.02273ZM17.3213 17.3057H2.67843V9.03205H17.3213V17.3057ZM2.67843 7.55149V4.59038H5.53557V5.63547C5.53557 5.73128 5.61593 5.80966 5.71415 5.80966H6.96415C7.06236 5.80966 7.14272 5.73128 7.14272 5.63547V4.59038H12.857V5.63547C12.857 5.73128 12.9374 5.80966 13.0356 5.80966H14.2856C14.3838 5.80966 14.4641 5.73128 14.4641 5.63547V4.59038H17.3213V7.55149H2.67843Z" fill="#3A4045"/>
</svg>
