<svg width="16" height="16" viewBox="0 0 16 16" fill="none" xmlns="http://www.w3.org/2000/svg">
<path d="M8.92473 8.00002L13.6122 2.41252C13.6908 2.31966 13.6247 2.17859 13.5033 2.17859H12.0783C11.9944 2.17859 11.914 2.21609 11.8587 2.28037L7.99258 6.8893L4.12651 2.28037C4.07294 2.21609 3.99258 2.17859 3.90687 2.17859H2.48187C2.36044 2.17859 2.29437 2.31966 2.37294 2.41252L7.06044 8.00002L2.37294 13.5875C2.35534 13.6082 2.34405 13.6335 2.3404 13.6605C2.33676 13.6874 2.34092 13.7148 2.35239 13.7394C2.36386 13.764 2.38216 13.7849 2.40511 13.7994C2.42806 13.8139 2.4547 13.8216 2.48187 13.8214H3.90687C3.9908 13.8214 4.07115 13.7839 4.12651 13.7197L7.99258 9.11073L11.8587 13.7197C11.9122 13.7839 11.9926 13.8214 12.0783 13.8214H13.5033C13.6247 13.8214 13.6908 13.6804 13.6122 13.5875L8.92473 8.00002Z" fill="#3A4045"/>
</svg>
