<svg width="21" height="20" viewBox="0 0 21 20" fill="none" xmlns="http://www.w3.org/2000/svg">
<g clip-path="url(#clip0_10604_4580)">
<path d="M11.7112 7.77246C11.2134 7.77246 10.8276 8.1622 10.8276 8.64338C10.8276 9.12456 11.2134 9.51429 11.7112 9.51429C12.1658 9.51429 12.5516 9.12456 12.5516 8.64338C12.5516 8.1622 12.1658 7.77246 11.7112 7.77246ZM5.67745 7.77246C5.17967 7.77246 4.79395 8.1622 4.79395 8.64338C4.79395 9.12456 5.17967 9.51429 5.67745 9.51429C6.13213 9.51429 6.51786 9.12456 6.51786 8.64338C6.51786 8.1622 6.13213 7.77246 5.67745 7.77246Z" fill="#3A4045"/>
<path d="M18.6285 6.1186C17.6315 4.73198 16.1939 3.73288 14.5557 3.28813V3.2903C14.1872 2.87662 13.7714 2.49559 13.3059 2.15594C9.77834 -0.435039 4.8264 0.355318 2.2513 3.91954C0.17614 6.81534 0.264491 10.7105 2.38059 13.4778L2.39783 16.3649C2.39783 16.4346 2.40861 16.5043 2.43016 16.5696C2.45726 16.6568 2.50113 16.7378 2.55924 16.8079C2.61735 16.878 2.68858 16.9359 2.76883 16.9781C2.84909 17.0204 2.93681 17.0463 3.02697 17.0543C3.11713 17.0622 3.20796 17.0522 3.29427 17.0246L6.02236 16.1559C6.74425 16.415 7.48984 16.5631 8.23113 16.6044L8.22035 16.6131C10.1404 18.0262 12.6573 18.4508 14.9652 17.68L17.704 18.5814C17.773 18.6032 17.8441 18.6162 17.9174 18.6162C18.2988 18.6162 18.6069 18.3049 18.6069 17.9195V15.0019C20.5054 12.3979 20.555 8.79885 18.6285 6.1186ZM6.32405 14.61L6.06546 14.5012L3.93212 15.1761L3.91057 12.9117L3.73818 12.7158C1.91514 10.4688 1.79446 7.2312 3.50114 4.85578C5.57845 1.9774 9.56069 1.34163 12.4008 3.41876C15.2496 5.51114 15.881 9.52824 13.8231 12.3892C12.097 14.782 9.00689 15.666 6.32405 14.61ZM17.2063 14.2399L17.0339 14.4576L17.0554 16.722L14.9436 16.0035L14.685 16.1124C13.4783 16.5652 12.1918 16.6023 11.0002 16.2648L10.9959 16.2626C12.6336 15.7551 14.0643 14.7245 15.0729 13.3254C16.7192 11.0327 16.9865 8.15219 16.0297 5.69621L16.0426 5.70492C16.5382 6.06417 16.9929 6.51269 17.3786 7.05484C18.9431 9.22342 18.8547 12.1758 17.2063 14.2399Z" fill="#3A4045"/>
<path d="M8.69503 7.77246C8.19725 7.77246 7.81152 8.1622 7.81152 8.64338C7.81152 9.12456 8.19725 9.51429 8.69503 9.51429C9.14971 9.51429 9.53544 9.12456 9.53544 8.64338C9.53544 8.1622 9.14971 7.77246 8.69503 7.77246Z" fill="#3A4045"/>
</g>
<defs>
<clipPath id="clip0_10604_4580">
<rect width="19.3078" height="19.5085" fill="white" transform="translate(0.743164)"/>
</clipPath>
</defs>
</svg>
