<svg width="15" height="18" viewBox="0 0 15 18" fill="none" xmlns="http://www.w3.org/2000/svg">
<path d="M13.7143 15.9345H0.571429C0.255357 15.9345 0 16.2492 0 16.6388V17.4311C0 17.5279 0.0642857 17.6071 0.142857 17.6071H14.1429C14.2214 17.6071 14.2857 17.5279 14.2857 17.4311V16.6388C14.2857 16.2492 14.0304 15.9345 13.7143 15.9345ZM2.60179 14.0857C2.6375 14.0857 2.67321 14.0813 2.70893 14.0747L5.7125 13.4254C5.74821 13.4166 5.78214 13.3968 5.80714 13.3638L13.3768 4.03424C13.3933 4.01388 13.4065 3.98969 13.4154 3.96307C13.4244 3.93644 13.429 3.9079 13.429 3.87907C13.429 3.85025 13.4244 3.82171 13.4154 3.79508C13.4065 3.76846 13.3933 3.74427 13.3768 3.72391L10.4089 0.0638259C10.375 0.022009 10.3304 0 10.2821 0C10.2339 0 10.1893 0.022009 10.1554 0.0638259L2.58571 9.39341C2.55893 9.42642 2.54286 9.46604 2.53571 9.51006L2.00893 13.212C1.99156 13.3299 1.99776 13.4512 2.02701 13.5655C2.05626 13.6798 2.10767 13.7835 2.17679 13.8678C2.29464 14.0087 2.44286 14.0857 2.60179 14.0857Z" fill="#FEFEFE"/>
</svg>
