<svg width="24" height="25" viewBox="0 0 24 25" fill="none" xmlns="http://www.w3.org/2000/svg">
<path d="M12 18.5C7.51049 18.5 2 14.5928 2 12.5C2 10.4072 7.51049 6.5 12 6.5C16.4895 6.5 22 10.4072 22 12.5C22 14.5928 16.4895 18.5 12 18.5ZM3.92582 12.9623C4.4058 13.494 5.06532 14.0761 5.81317 14.6064C7.71956 15.9581 9.87506 16.7774 12 16.7774C14.1249 16.7774 16.2804 15.9581 18.1868 14.6064C18.9347 14.0761 19.5942 13.494 20.0742 12.9623C20.2291 12.7908 20.3571 12.6329 20.4518 12.5C20.3571 12.3671 20.2291 12.2092 20.0742 12.0377C19.5942 11.506 18.9347 10.9239 18.1868 10.3936C16.2804 9.04186 14.1249 8.22256 12 8.22256C9.87506 8.22256 7.71956 9.04186 5.81317 10.3936C5.06532 10.9239 4.4058 11.506 3.92582 12.0377C3.77093 12.2092 3.64286 12.3671 3.54819 12.5C3.64286 12.6329 3.77093 12.7908 3.92582 12.9623ZM12 16C10.067 16 8.5 14.433 8.5 12.5C8.5 10.567 10.067 9 12 9C13.933 9 15.5 10.567 15.5 12.5C15.5 14.433 13.933 16 12 16ZM12 14.2C12.9389 14.2 13.7 13.4389 13.7 12.5C13.7 11.5611 12.9389 10.8 12 10.8C11.0611 10.8 10.3 11.5611 10.3 12.5C10.3 13.4389 11.0611 14.2 12 14.2Z" fill="#1C2E45" fill-opacity="0.6"/>
</svg>
