<svg width="24" height="25" viewBox="0 0 24 25" fill="none" xmlns="http://www.w3.org/2000/svg">
<g style="mix-blend-mode:darken">
<path d="M9.49908 18.1495L10.9379 16.7107C11.2919 16.7548 11.6464 16.7774 12 16.7774C14.1249 16.7774 16.2804 15.9582 18.1868 14.6064C18.9347 14.0762 19.5942 13.494 20.0742 12.9623C20.2291 12.7908 20.3571 12.633 20.4518 12.5C20.3571 12.3671 20.2291 12.2092 20.0742 12.0377C19.5942 11.506 18.9347 10.9239 18.1868 10.3936C18.0035 10.2636 17.8178 10.1385 17.63 10.0186L18.8352 8.81338C20.6938 10.0321 22 11.4811 22 12.5C22 14.5928 16.4895 18.5 12 18.5C11.1869 18.5 10.3403 18.3719 9.49908 18.1495ZM5.16933 16.1896C3.30831 14.9702 2 13.5197 2 12.5C2 10.4072 7.51049 6.50001 12 6.50001C12.815 6.50001 13.6637 6.62877 14.5069 6.85207L13.0688 8.29015C12.7126 8.24555 12.3558 8.22257 12 8.22257C9.87506 8.22257 7.71956 9.04187 5.81317 10.3936C5.06532 10.9239 4.4058 11.506 3.92582 12.0377C3.77093 12.2092 3.64286 12.3671 3.54819 12.5C3.64286 12.633 3.77093 12.7908 3.92582 12.9623C4.4058 13.494 5.06532 14.0762 5.81317 14.6064C5.99804 14.7375 6.18526 14.8636 6.37457 14.9844L5.16933 16.1896ZM11.6645 15.9841L15.4841 12.1645C15.4946 12.2749 15.5 12.3868 15.5 12.5C15.5 14.433 13.933 16 12 16C11.8868 16 11.7749 15.9946 11.6645 15.9841ZM8.51654 12.8424C8.5056 12.7298 8.5 12.6155 8.5 12.5C8.5 10.567 10.067 9.00001 12 9.00001C12.1155 9.00001 12.2298 9.00561 12.3424 9.01655L8.51654 12.8424ZM4.50435 19.0103L18.713 4.8016C19.0061 4.50852 19.4813 4.50852 19.7744 4.8016C20.0675 5.09468 20.0675 5.56985 19.7744 5.86294L5.56569 20.0716C5.2726 20.3647 4.79743 20.3647 4.50435 20.0716C4.21127 19.7785 4.21127 19.3034 4.50435 19.0103Z" fill="#1C2E45" fill-opacity="0.6"/>
</g>
</svg>
