<svg width="18" height="18" viewBox="0 0 18 18" fill="none" xmlns="http://www.w3.org/2000/svg">
<path d="M17.2141 1.72292H13.4641V0.329457C13.4641 0.233656 13.3838 0.155273 13.2856 0.155273H12.0356C11.9374 0.155273 11.857 0.233656 11.857 0.329457V1.72292H6.14272V0.329457C6.14272 0.233656 6.06236 0.155273 5.96415 0.155273H4.71415C4.61593 0.155273 4.53557 0.233656 4.53557 0.329457V1.72292H0.785575C0.390485 1.72292 0.0712891 2.03427 0.0712891 2.41965V16.8769C0.0712891 17.2622 0.390485 17.5736 0.785575 17.5736H17.2141C17.6092 17.5736 17.9284 17.2622 17.9284 16.8769V2.41965C17.9284 2.03427 17.6092 1.72292 17.2141 1.72292ZM16.3213 16.0059H1.67843V7.73224H16.3213V16.0059ZM1.67843 6.25169V3.29057H4.53557V4.33567C4.53557 4.43147 4.61593 4.50985 4.71415 4.50985H5.96415C6.06236 4.50985 6.14272 4.43147 6.14272 4.33567V3.29057H11.857V4.33567C11.857 4.43147 11.9374 4.50985 12.0356 4.50985H13.2856C13.3838 4.50985 13.4641 4.43147 13.4641 4.33567V3.29057H16.3213V6.25169H1.67843Z" fill="#3A4045"/>
</svg>
