<svg width="20" height="20" viewBox="0 0 20 20" fill="none" xmlns="http://www.w3.org/2000/svg">
<g clip-path="url(#clip0_2123_252)">
<path d="M11.3615 7.88281C10.8458 7.88281 10.4463 8.27255 10.4463 8.75373C10.4463 9.23491 10.8458 9.62464 11.3615 9.62464C11.8325 9.62464 12.232 9.23491 12.232 8.75373C12.232 8.27255 11.8325 7.88281 11.3615 7.88281ZM5.11147 7.88281C4.59584 7.88281 4.19629 8.27255 4.19629 8.75373C4.19629 9.23491 4.59584 9.62464 5.11147 9.62464C5.58245 9.62464 5.982 9.23491 5.982 8.75373C5.982 8.27255 5.58245 7.88281 5.11147 7.88281Z" fill="#3A4045"/>
<path d="M18.5265 6.22896C17.4938 4.84233 16.0046 3.84323 14.3077 3.39848V3.40066C13.926 2.98697 13.4952 2.60594 13.0131 2.26629C9.35908 -0.324687 4.22961 0.465669 1.5622 4.02989C-0.587352 6.92569 -0.495834 10.8209 1.69613 13.5882L1.71399 16.4753C1.71399 16.545 1.72515 16.6146 1.74747 16.6799C1.77555 16.7672 1.82098 16.8482 1.88118 16.9183C1.94138 16.9884 2.01515 17.0462 2.09829 17.0885C2.18142 17.1308 2.27229 17.1566 2.36568 17.1646C2.45907 17.1726 2.55316 17.1625 2.64256 17.135L5.46845 16.2663C6.21622 16.5254 6.98854 16.6734 7.7564 16.7148L7.74524 16.7235C9.73408 18.1366 12.3412 18.5611 14.7318 17.7904L17.5689 18.6918C17.6403 18.7135 17.714 18.7266 17.7899 18.7266C18.185 18.7266 18.5042 18.4152 18.5042 18.0299V15.1123C20.4707 12.5083 20.522 8.9092 18.5265 6.22896ZM5.78095 14.7204L5.51309 14.6115L3.30327 15.2865L3.28095 13.0221L3.10238 12.8261C1.21399 10.5792 1.08899 7.34155 2.85685 4.96613C5.00863 2.08775 9.13363 1.45198 12.0756 3.52912C15.0265 5.62149 15.6805 9.63859 13.5488 12.4996C11.7609 14.8924 8.55997 15.7764 5.78095 14.7204ZM17.0533 14.3502L16.8747 14.568L16.897 16.8324L14.7095 16.1139L14.4417 16.2227C13.1917 16.6756 11.8591 16.7126 10.6247 16.3751L10.6202 16.3729C12.3167 15.8655 13.7987 14.8348 14.8435 13.4358C16.5488 11.1431 16.8256 8.26254 15.8345 5.80656L15.8479 5.81527C16.3613 6.17452 16.8323 6.62304 17.2318 7.16519C18.8524 9.33377 18.7609 12.2862 17.0533 14.3502Z" fill="#3A4045"/>
<path d="M8.23647 7.88281C7.72084 7.88281 7.32129 8.27255 7.32129 8.75373C7.32129 9.23491 7.72084 9.62464 8.23647 9.62464C8.70745 9.62464 9.107 9.23491 9.107 8.75373C9.107 8.27255 8.70745 7.88281 8.23647 7.88281Z" fill="#3A4045"/>
</g>
<defs>
<clipPath id="clip0_2123_252">
<rect width="20" height="19.5085" fill="white" transform="translate(0 0.110352)"/>
</clipPath>
</defs>
</svg>
