<svg width="23" height="27" viewBox="0 0 23 27" fill="none" xmlns="http://www.w3.org/2000/svg">
<path d="M21.7804 5.06161C21.6824 4.94966 21.5623 4.85915 21.4277 4.79575C21.2931 4.73234 21.1469 4.69739 20.9981 4.6931C18.6874 4.63269 15.7635 2.16189 13.8304 1.19229C12.6363 0.595232 11.8479 0.201555 11.2559 0.09785C11.1357 0.0803335 11.0135 0.0806728 10.8934 0.0988569C10.3014 0.202562 9.51301 0.596239 8.3199 1.1933C6.38675 2.16189 3.46287 4.63269 1.15215 4.6931C1.00331 4.69762 0.856983 4.73265 0.722238 4.79604C0.587493 4.85943 0.467204 4.94982 0.368826 5.06161C0.164912 5.29231 0.0597033 5.59384 0.0758337 5.90132C0.572209 15.9929 4.19182 22.2384 10.543 25.8681C10.7081 25.9617 10.8914 26.0101 11.0736 26.0101C11.2559 26.0101 11.4391 25.9617 11.6052 25.8681C17.9564 22.2384 21.575 15.9929 22.0724 5.90132C22.0895 5.59388 21.9846 5.29213 21.7804 5.06161ZM16.7301 9.0306L11.3706 16.9394C11.1783 17.2233 10.8763 17.4116 10.5772 17.4116C10.2772 17.4116 9.94394 17.2475 9.73351 17.037L5.95582 13.2583C5.83248 13.1346 5.76323 12.9669 5.76323 12.7922C5.76323 12.6174 5.83248 12.4498 5.95582 12.326L6.88917 11.3906C7.01322 11.2678 7.18075 11.1989 7.35534 11.1989C7.52992 11.1989 7.69745 11.2678 7.82151 11.3906L10.2782 13.8474L14.5462 7.54751C14.645 7.40335 14.7968 7.30412 14.9684 7.27148C15.1401 7.23884 15.3177 7.27546 15.4625 7.37333L16.5549 8.11437C16.6992 8.21296 16.7987 8.36467 16.8315 8.53634C16.8643 8.70802 16.8279 8.88571 16.7301 9.0306Z" fill="white"/>
</svg>
