<svg width="18" height="18" viewBox="0 0 18 18" fill="none" xmlns="http://www.w3.org/2000/svg">
<path fill-rule="evenodd" clip-rule="evenodd" d="M2.79347 1.257C2.40295 0.86648 1.76978 0.86648 1.37926 1.257L1.25711 1.37915C0.866587 1.76968 0.866587 2.40284 1.25711 2.79337L7.46363 8.99989L1.25711 15.2064C0.866587 15.5969 0.866587 16.2301 1.25711 16.6206L1.37926 16.7428C1.76978 17.1333 2.40295 17.1333 2.79347 16.7428L8.99999 10.5362L15.2065 16.7428C15.597 17.1333 16.2302 17.1333 16.6207 16.7428L16.7429 16.6206C17.1334 16.2301 17.1334 15.5969 16.7429 15.2064L10.5364 8.99989L16.7429 2.79337C17.1334 2.40284 17.1334 1.76968 16.7429 1.37915L16.6207 1.257C16.2302 0.86648 15.597 0.86648 15.2065 1.257L8.99999 7.46353L2.79347 1.257Z" fill="#7A7A7A"/>
</svg>
