<svg width="20" height="20" viewBox="0 0 20 20" fill="none" xmlns="http://www.w3.org/2000/svg">
<g clip-path="url(#clip0_6731_271)">
<path d="M17.9465 14.9107H16.3773C16.2702 14.9107 16.1697 14.9576 16.1028 15.0402C15.9465 15.2299 15.7791 15.4129 15.6028 15.587C14.8815 16.309 14.0272 16.8843 13.0871 17.2812C12.1131 17.6926 11.0663 17.9037 10.009 17.9018C8.93981 17.9018 7.9041 17.6919 6.93088 17.2812C5.99077 16.8843 5.13648 16.309 4.41526 15.587C3.69275 14.8675 3.11663 14.0147 2.71883 13.0759C2.30588 12.1027 2.09829 11.0692 2.09829 9.99998C2.09829 8.93079 2.30811 7.8973 2.71883 6.92409C3.11615 5.98436 3.68758 5.13837 4.41526 4.41293C5.14293 3.68748 5.98892 3.11605 6.93088 2.71873C7.9041 2.30802 8.93981 2.0982 10.009 2.0982C11.0782 2.0982 12.1139 2.30579 13.0871 2.71873C14.0291 3.11605 14.8751 3.68748 15.6028 4.41293C15.7791 4.58927 15.9443 4.7723 16.1028 4.9598C16.1697 5.04239 16.2724 5.08927 16.3773 5.08927H17.9465C18.0871 5.08927 18.1742 4.93302 18.0961 4.81471C16.384 2.154 13.3885 0.392839 9.98445 0.401767C4.63624 0.41516 0.348292 4.75668 0.401864 10.0982C0.455435 15.3549 4.73669 19.5982 10.009 19.5982C13.4041 19.5982 16.3862 17.8393 18.0961 15.1852C18.172 15.0669 18.0871 14.9107 17.9465 14.9107ZM19.9309 9.85936L16.7635 7.35936C16.6452 7.26561 16.4733 7.35043 16.4733 7.49998V9.19641H9.46436C9.36615 9.19641 9.28579 9.27677 9.28579 9.37498V10.625C9.28579 10.7232 9.36615 10.8036 9.46436 10.8036H16.4733V12.5C16.4733 12.6495 16.6474 12.7344 16.7635 12.6406L19.9309 10.1406C19.9522 10.1239 19.9695 10.1026 19.9814 10.0782C19.9932 10.0538 19.9994 10.0271 19.9994 9.99998C19.9994 9.97288 19.9932 9.94613 19.9814 9.92177C19.9695 9.8974 19.9522 9.87606 19.9309 9.85936Z" fill="#E8454D"/>
</g>
<defs>
<clipPath id="clip0_6731_271">
<rect width="20" height="20" fill="white"/>
</clipPath>
</defs>
</svg>
