<svg width="16" height="16" viewBox="0 0 16 16" fill="none" xmlns="http://www.w3.org/2000/svg">
<g clip-path="url(#clip0_10390_755)">
<path d="M8.17328 0.321438C5.45006 0.314295 3.05363 1.72322 1.68399 3.8518C1.62328 3.94644 1.69113 4.07144 1.80363 4.07144H3.05899C3.1447 4.07144 3.22506 4.03394 3.27863 3.96787C3.40363 3.81608 3.53756 3.66965 3.67863 3.53037C4.26078 2.95001 4.93756 2.49287 5.69113 2.17501C6.46971 1.84644 7.29828 1.67858 8.15363 1.67858C9.00899 1.67858 9.83756 1.84465 10.6161 2.17501C11.3697 2.49287 12.0465 2.95001 12.6286 3.53037C13.2108 4.11072 13.6661 4.78751 13.9858 5.5393C14.3161 6.31787 14.4822 7.14465 14.4822 8.00001C14.4822 8.85537 14.3143 9.68215 13.9858 10.4607C13.6679 11.2125 13.2108 11.8893 12.6286 12.4697C12.0465 13.05 11.3697 13.5072 10.6161 13.825C9.83695 14.1541 8.99947 14.3229 8.15363 14.3214C7.29828 14.3214 6.46971 14.1536 5.69113 13.825C4.93904 13.5075 4.25561 13.0472 3.67863 12.4697C3.53756 12.3286 3.40542 12.1822 3.27863 12.0322C3.22506 11.9661 3.14292 11.9286 3.05899 11.9286H1.80363C1.69113 11.9286 1.62149 12.0536 1.68399 12.1482C3.05185 14.2714 5.43756 15.6786 8.15363 15.6786C12.3715 15.6786 15.7965 12.2839 15.8393 8.07858C15.8822 3.80537 12.4518 0.332152 8.17328 0.321438ZM5.91113 10V8.64287H0.30399C0.225419 8.64287 0.161133 8.57858 0.161133 8.50001V7.50001C0.161133 7.42144 0.225419 7.35715 0.30399 7.35715H5.91113V6.00001C5.91113 5.88037 6.05042 5.81251 6.14328 5.88751L8.6772 7.88751C8.69428 7.90087 8.70809 7.91795 8.71758 7.93744C8.72708 7.95693 8.73202 7.97833 8.73202 8.00001C8.73202 8.02169 8.72708 8.04309 8.71758 8.06258C8.70809 8.08207 8.69428 8.09915 8.6772 8.11251L6.14328 10.1125C6.05042 10.1857 5.91113 10.1197 5.91113 10Z" fill="#FEFEFE"/>
</g>
<defs>
<clipPath id="clip0_10390_755">
<rect width="16" height="16" fill="white"/>
</clipPath>
</defs>
</svg>
