<svg width="16" height="16" viewBox="0 0 16 16" fill="none" xmlns="http://www.w3.org/2000/svg">
<path d="M15.0003 1.71423H1.00028C0.921708 1.71423 0.857422 1.77852 0.857422 1.85709V2.99995C0.857422 3.07852 0.921708 3.1428 1.00028 3.1428H15.0003C15.0789 3.1428 15.1431 3.07852 15.1431 2.99995V1.85709C15.1431 1.77852 15.0789 1.71423 15.0003 1.71423ZM15.0003 12.8571H1.00028C0.921708 12.8571 0.857422 12.9214 0.857422 12.9999V14.1428C0.857422 14.2214 0.921708 14.2857 1.00028 14.2857H15.0003C15.0789 14.2857 15.1431 14.2214 15.1431 14.1428V12.9999C15.1431 12.9214 15.0789 12.8571 15.0003 12.8571ZM15.0003 7.28566H1.00028C0.921708 7.28566 0.857422 7.34995 0.857422 7.42852V8.57138C0.857422 8.64995 0.921708 8.71423 1.00028 8.71423H15.0003C15.0789 8.71423 15.1431 8.64995 15.1431 8.57138V7.42852C15.1431 7.34995 15.0789 7.28566 15.0003 7.28566Z" fill="#FEFEFE"/>
</svg>
