<svg width="14" height="18" viewBox="0 0 14 18" fill="none" xmlns="http://www.w3.org/2000/svg">
<path d="M13.1429 3.16929H10.8571V1.40857C10.8571 0.631656 10.3446 0 9.71429 0H4C3.36964 0 2.85714 0.631656 2.85714 1.40857V3.16929H0.571429C0.255357 3.16929 0 3.48401 0 3.87357V4.57786C0 4.6747 0.0642857 4.75393 0.142857 4.75393H1.22143L1.6625 16.2646C1.69107 17.0151 2.19464 17.6071 2.80357 17.6071H10.9107C11.5214 17.6071 12.0232 17.0173 12.0518 16.2646L12.4929 4.75393H13.5714C13.65 4.75393 13.7143 4.6747 13.7143 4.57786V3.87357C13.7143 3.48401 13.4589 3.16929 13.1429 3.16929ZM9.57143 3.16929H4.14286V1.58464H9.57143V3.16929Z" fill="#FEFEFE"/>
</svg>
