<svg width="54" height="54" viewBox="0 0 54 54" fill="none" xmlns="http://www.w3.org/2000/svg">
<path d="M47.6243 41.9764C46.5014 39.3167 44.872 36.9008 42.8267 34.8633C40.7876 32.8199 38.3721 31.1907 35.7136 30.0656C35.6897 30.0537 35.6659 30.0478 35.6421 30.0359C39.3505 27.3573 41.7612 22.9942 41.7612 18.0716C41.7612 9.91683 35.154 3.30969 26.9993 3.30969C18.8445 3.30969 12.2374 9.91683 12.2374 18.0716C12.2374 22.9942 14.6481 27.3573 18.3564 30.0418C18.3326 30.0537 18.3088 30.0597 18.285 30.0716C15.6183 31.1966 13.2255 32.8097 11.1719 34.8692C9.12849 36.9083 7.49929 39.3238 6.37427 41.9823C5.26904 44.585 4.67297 47.3754 4.61831 50.2025C4.61672 50.2661 4.62787 50.3293 4.65109 50.3884C4.6743 50.4476 4.70913 50.5015 4.75351 50.547C4.79788 50.5925 4.85092 50.6286 4.90948 50.6533C4.96804 50.678 5.03095 50.6907 5.0945 50.6906H8.66593C8.92784 50.6906 9.13617 50.4823 9.14212 50.2264C9.26117 45.6311 11.1064 41.3275 14.3683 38.0656C17.7433 34.6906 22.2255 32.8335 26.9993 32.8335C31.7731 32.8335 36.2552 34.6906 39.6302 38.0656C42.8921 41.3275 44.7374 45.6311 44.8564 50.2264C44.8624 50.4883 45.0707 50.6906 45.3326 50.6906H48.904C48.9676 50.6907 49.0305 50.678 49.0891 50.6533C49.1476 50.6286 49.2007 50.5925 49.245 50.547C49.2894 50.5015 49.3242 50.4476 49.3475 50.3884C49.3707 50.3293 49.3818 50.2661 49.3802 50.2025C49.3207 47.3573 48.7314 44.5895 47.6243 41.9764ZM26.9993 28.3097C24.2671 28.3097 21.6957 27.2442 19.7612 25.3097C17.8266 23.3752 16.7612 20.8037 16.7612 18.0716C16.7612 15.3395 17.8266 12.768 19.7612 10.8335C21.6957 8.89898 24.2671 7.8335 26.9993 7.8335C29.7314 7.8335 32.3028 8.89898 34.2374 10.8335C36.1719 12.768 37.2374 15.3395 37.2374 18.0716C37.2374 20.8037 36.1719 23.3752 34.2374 25.3097C32.3028 27.2442 29.7314 28.3097 26.9993 28.3097Z" fill="#3A4045"/>
</svg>
